<?xml version="1.0" ?><svg id="Capa_1" style="enable-background:new 0 0 512 512;" version="1.1" viewBox="0 0 512 512" xml:space="preserve" xmlns="http://www.w3.org/2000/svg" xmlns:xlink="http://www.w3.org/1999/xlink"><style type="text/css">
	.st0{fill:#231F20;}
</style><g><path class="st0" d="M189.7,404.7c-6.1,0-11,4-11,8.9v19.5c0,4.9,4.9,8.9,11,8.9s11-4,11-8.9v-19.5   C200.7,408.7,195.8,404.7,189.7,404.7z"/><path class="st0" d="M258.7,404.7c-6.1,0-11,4-11,8.9v19.5c0,4.9,4.9,8.9,11,8.9s11-4,11-8.9v-19.5   C269.7,408.7,264.8,404.7,258.7,404.7z"/><path class="st0" d="M258.7,460.6c-6.1,0-11,4-11,8.9V489c0,4.9,4.9,8.9,11,8.9s11-4,11-8.9v-19.5   C269.7,464.6,264.8,460.6,258.7,460.6z"/><path class="st0" d="M325.5,404.7c-6.1,0-11,4-11,8.9v19.5c0,4.9,4.9,8.9,11,8.9c6.1,0,11-4,11-8.9v-19.5   C336.6,408.7,331.6,404.7,325.5,404.7z"/><path class="st0" d="M252.4,121.6c1.9,1.9,4.4,2.8,6.9,2.8c2.5,0,5-0.9,6.9-2.8c3.8-3.8,3.8-9.9,0-13.7l-46-46   c-3.8-3.8-9.9-3.8-13.7,0c-3.8,3.8-3.8,9.9,0,13.7L252.4,121.6z"/><path class="st0" d="M336.6,98.5c5.4,0,9.7-4.4,9.7-9.7v-65c0-5.4-4.4-9.7-9.7-9.7c-5.4,0-9.7,4.4-9.7,9.7v65   C326.9,94.1,331.3,98.5,336.6,98.5z"/><path class="st0" d="M414,124.5c2.5,0,5-0.9,6.9-2.8l46-46c3.8-3.8,3.8-9.9,0-13.7c-3.8-3.8-9.9-3.8-13.7,0l-46,46   c-3.8,3.8-3.8,9.9,0,13.7C409,123.5,411.5,124.5,414,124.5z"/><path class="st0" d="M427.6,192c0,5.4,4.4,9.7,9.7,9.7h65c5.4,0,9.7-4.4,9.7-9.7c0-5.4-4.4-9.7-9.7-9.7h-65   C431.9,182.3,427.6,186.7,427.6,192z"/><path class="st0" d="M450.9,232.6c-6.7-15.1-19.8-26.7-35.7-31.3c0.4-3,0.5-6.1,0.5-9.2c0-43.6-35.5-79.1-79-79.1   c-34.8,0-64.4,22.5-74.9,53.8c-0.1,0-0.1,0-0.2,0.1c-3.1,1.1-6.2,2.4-9.2,3.8c-20.1-36.1-58.7-60.6-102.9-60.6   c-64.9,0-117.8,52.8-117.8,117.7c0,4.9,0.4,9.9,1,14.6C13.2,254.6,0,276.3,0,301c0,38.3,31.1,69.3,69.3,69.3H83h7h30.1h15.5h8.6   h34.5v6.9c0,4.9,4.9,8.9,11,8.9s11-4,11-8.9v-6.9h46.9v6.9c0,4.9,4.9,8.9,11,8.9s11-4,11-8.9v-6.9h44.8v6.9c0,4.9,4.9,8.9,11,8.9   c6.1,0,11-4,11-8.9v-6.9h52.7h7h23.1h21.5c20,0,38-8.6,50.7-22.2l0,0.2c11.6-12.4,18.7-28.9,18.7-47.3   C510.2,266.3,484.4,237.4,450.9,232.6z M336.7,132.4c32.9,0,59.6,26.8,59.6,59.7c0,2.4-0.2,4.8-0.5,7.1c-0.1,0-0.1,0-0.2,0   c-9.4,0.6-18.2,3.5-25.7,8.2c-15.4-27.3-44.7-45.6-78.2-45.6c-0.1,0-0.1,0-0.1,0c0,0-0.1,0-0.1,0c-2.1,0-4.2,0.1-6.3,0.3   C295.5,144.4,314.7,132.4,336.7,132.4z M440.8,348.2h-21.5H398c-0.6,0-1.2-0.1-1.8-0.1H144.2h-8.6H83c-0.1,0-0.3,0-0.4,0.1H69.3   c-26,0-47.2-21.2-47.2-47.3c0-14.1,6.2-26.6,16-35.3c5.5-5,12.3-8.6,19.8-10.4c-2.2-7-3.5-14.2-4-21.7c-0.1-2-0.1-4-0.1-5.9   c0-52.7,42.9-95.7,95.7-95.7c36.5,0,68.3,20.6,84.3,50.9c1.2,1.9,2.2,4,3.1,6.1c1.9,4.5,6.2,7.6,11.5,7.6c2.3,0,4.7-0.7,6.6-1.9   c0.2-0.2,0.4-0.3,0.6-0.5c0.6-0.4,1.2-0.8,1.8-1.1c1.4-0.8,2.7-1.5,4-2.2c5-2.5,10.3-4.5,15.9-5.6c0,0,0.1,0,0.1,0l0,0   c4.6-1,9.3-1.5,14.2-1.5c27.4,0,50.9,16.2,61.5,39.5c0.2,0,0.2,0,0.2,0.1c2.5,5.1,7.5,8.5,13.2,8.5c0,0,0.1,0,0.1,0c0,0,0,0,0.1,0   c7.6,0,12-3.6,12-3.6c2.7-2.1,5.8-3.8,9-4.9c3.7-1.5,7.8-2.2,11.9-2.2c3.4,0,6.8,0.5,9.8,1.5c5.8,1.7,10.9,5,14.9,9.2l4.2,5.6   c3,4.8,4.8,10.4,5.2,16.4h7.2c5.1,0,10.2,0.8,14.7,2.4c18.8,6.2,32.5,23.9,32.5,44.7C488,327.1,466.8,348.2,440.8,348.2z"/></g></svg>